<?xml version="1.0" encoding="UTF-8"?>
<svg width="105px" height="28px" viewBox="0 0 105 28" version="1.1" xmlns="http://www.w3.org/2000/svg" xmlns:xlink="http://www.w3.org/1999/xlink">
    <!-- Generator: Sketch 48.2 (47327) - http://www.bohemiancoding.com/sketch -->
    <title>M</title>
    <desc>Created with Sketch.</desc>
    <defs>
        <linearGradient x1="50%" y1="0%" x2="50%" y2="100%" id="linearGradient-1">
            <stop stop-color="#FF0006" offset="0%"></stop>
            <stop stop-color="#FF0006" offset="24.870456%"></stop>
            <stop stop-color="#FFD900" offset="49.738919%"></stop>
            <stop stop-color="#00B3A8" offset="77.1464445%"></stop>
            <stop stop-color="#0A57AC" offset="100%"></stop>
        </linearGradient>
        <path d="M27.6516237,18 L25.6709149,12.0939889 L22.4588083,17.7351124 C22.8048864,18.415071 23,19.1847499 23,20 C23,22.7614237 20.7614237,25 18,25 C15.2385763,25 13,22.7614237 13,20 C13,19.0884133 13.2439505,18.2338042 13.6701291,17.4978954 L10.3822569,11.7237118 L8.2773677,18 L9,18 C9.55228475,18 10,18.4477153 10,19 L10,26 C10,26.5522847 9.55228475,27 9,27 L2,27 C1.44771525,27 1,26.5522847 1,26 L1,19 C1,18.4477153 1.44771525,18 2,18 L3.00367317,18 L6.01513422,9.02052641 C5.37807279,8.18137733 5,7.13484048 5,6 C5,3.23857625 7.23857625,1 10,1 C12.7614237,1 15,3.23857625 15,6 C15,6.92173618 14.750587,7.78521884 14.3155682,8.52664082 L18.0015574,15.0000002 C18.0878022,15.0000265 18.1735366,15.0022364 18.2587083,15.0065776 L21.8223032,8.74816788 C21.3025119,7.95958891 21,7.01512217 21,6 C21,3.23857625 23.2385763,1 26,1 C28.7614237,1 31,3.23857625 31,6 C31,7.16393271 30.6022946,8.23497633 29.935363,9.0846516 L32.9253182,18 L34,18 C34.5522847,18 35,18.4477153 35,19 L35,26 C35,26.5522847 34.5522847,27 34,27 L27,27 C26.4477153,27 26,26.5522847 26,26 L26,19 C26,18.4477153 26.4477153,18 27,18 L27.6516237,18 Z" id="path-2"></path>
    </defs>
    <g id="Page-1" stroke="none" stroke-width="1" fill="none" fill-rule="evenodd">
        <g id="M">
            <text id="Microservice-Graph-E" font-family="STHeitiSC-Medium, Heiti SC" font-size="9" font-weight="bold" fill="#000000">
                <tspan x="39" y="9">Microservice</tspan>
                <tspan x="39" y="18">Graph</tspan>
                <tspan x="39" y="27">Explorer</tspan>
            </text>
            <g id="Combined-Shape" fill-rule="nonzero">
                <use fill="#3D4448" fill-rule="evenodd" xlink:href="#path-2"></use>
                <use fill="url(#linearGradient-1)" fill-rule="evenodd" xlink:href="#path-2"></use>
                <path stroke="#FFFFFF" stroke-width="0.7" d="M27.165085,17.65 L25.5878815,12.9471473 L22.8542496,17.7479702 C23.1790533,18.4469014 23.35,19.2115219 23.35,20 C23.35,22.9547234 20.9547234,25.35 18,25.35 C15.0452766,25.35 12.65,22.9547234 12.65,20 C12.65,19.1163208 12.8647995,18.2632649 13.2687391,17.500306 L10.4652904,12.5768702 L8.7639064,17.65 L9,17.65 C9.74558441,17.65 10.35,18.2544156 10.35,19 L10.35,26 C10.35,26.7455844 9.74558441,27.35 9,27.35 L2,27.35 C1.25441559,27.35 0.65,26.7455844 0.65,26 L0.65,19 C0.65,18.2544156 1.25441559,17.65 2,17.65 L2.75189464,17.65 L5.62569639,9.08099427 C4.99515244,8.18749723 4.65,7.11951508 4.65,6 C4.65,3.04527659 7.04527659,0.65 10,0.65 C12.9547234,0.65 15.35,3.04527659 15.35,6 C15.35,6.89369943 15.1302919,7.75600716 14.7175931,8.52534505 L18.1320055,14.5217595 L21.4143589,8.75726793 C20.9174625,7.9326902 20.65,6.98583188 20.65,6 C20.65,3.04527659 23.0452766,0.65 26,0.65 C28.9547234,0.65 31.35,3.04527659 31.35,6 C31.35,7.14832787 30.986787,8.24210991 30.3259203,9.14845758 L33.1770968,17.65 L34,17.65 C34.7455844,17.65 35.35,18.2544156 35.35,19 L35.35,26 C35.35,26.7455844 34.7455844,27.35 34,27.35 L27,27.35 C26.2544156,27.35 25.65,26.7455844 25.65,26 L25.65,19 C25.65,18.2544156 26.2544156,17.65 27,17.65 L27.165085,17.65 Z"></path>
                <path stroke="#000000" stroke-width="1" d="M25.7895341,10.8751911 L28.346679,18.5 L27,18.5 C26.7238576,18.5 26.5,18.7238576 26.5,19 L26.5,26 C26.5,26.2761424 26.7238576,26.5 27,26.5 L34,26.5 C34.2761424,26.5 34.5,26.2761424 34.5,26 L34.5,19 C34.5,18.7238576 34.2761424,18.5 34,18.5 L32.5656346,18.5 L29.3755844,8.98801501 L29.5420531,8.77593273 C30.1593307,7.989517 30.5,7.0214005 30.5,6 C30.5,3.51471863 28.4852814,1.5 26,1.5 C23.5147186,1.5 21.5,3.51471863 21.5,6 C21.5,6.89222054 21.7596378,7.74458075 22.2397711,8.47299416 L22.4085578,8.72906155 L18.5408218,15.5216059 L18.2332565,15.5059294 C18.1562588,15.5020048 18.07896,15.5000239 18.001405,15.5000002 L17.7108363,15.4999116 L13.7380576,8.52289072 L13.8843188,8.27361134 C14.2855136,7.58983712 14.5,6.81119007 14.5,6 C14.5,3.51471863 12.4852814,1.5 10,1.5 C7.51471863,1.5 5.5,3.51471863 5.5,6 C5.5,6.99613124 5.82394021,7.94178061 6.41337344,8.71819294 L6.57326459,8.92880452 L3.36335679,18.5 L2,18.5 C1.72385763,18.5 1.5,18.7238576 1.5,19 L1.5,26 C1.5,26.2761424 1.72385763,26.5 2,26.5 L9,26.5 C9.27614237,26.5 9.5,26.2761424 9.5,26 L9.5,19 C9.5,18.7238576 9.27614237,18.5 9,18.5 L7.58231241,18.5 L10.2636377,10.504914 L14.246703,17.5000004 L14.1028101,17.748469 C13.709841,18.4270331 13.5,19.1976181 13.5,20 C13.5,22.4852814 15.5147186,24.5 18,24.5 C20.4852814,24.5 22.5,22.4852814 22.5,20 C22.5,19.2812633 22.331716,18.5877071 22.0132049,17.9619109 L21.891004,17.7218162 L25.7895341,10.8751911 Z"></path>
            </g>
        </g>
    </g>
</svg>