<?xml version="1.0" standalone="no"?>
<!DOCTYPE svg PUBLIC "-//W3C//DTD SVG 20010904//EN"
 "http://www.w3.org/TR/2001/REC-SVG-20010904/DTD/svg10.dtd">
<svg version="1.0" xmlns="http://www.w3.org/2000/svg"
 width="1152.000000pt" height="1152.000000pt" viewBox="0 0 1152.000000 1152.000000"
 preserveAspectRatio="xMidYMid meet">
<metadata>
Created by potrace 1.11, written by Peter Selinger 2001-2013
</metadata>
<g transform="translate(0.000000,1152.000000) scale(0.100000,-0.100000)"
fill="#000000" stroke="none">
<path d="M3092 10033 c-4 -1 -50 -4 -102 -7 -112 -7 -166 -13 -200 -21 -14 -3
-34 -7 -45 -9 -122 -19 -445 -152 -505 -209 -11 -9 -21 -16 -23 -15 -6 5 -77
-46 -77 -54 0 -5 -7 -8 -15 -8 -9 0 -18 -7 -21 -15 -4 -8 -10 -15 -15 -15 -22
0 -203 -182 -264 -265 -17 -22 -32 -42 -35 -45 -14 -14 -50 -70 -50 -79 0 -5
-6 -16 -14 -24 -26 -26 -139 -256 -141 -287 0 -3 -3 -9 -7 -15 -9 -14 -56
-192 -64 -239 -3 -21 -7 -48 -10 -60 -16 -86 -24 -536 -10 -621 4 -22 9 -64
12 -94 2 -29 8 -59 11 -65 4 -6 8 -20 9 -31 2 -34 37 -156 60 -210 7 -16 20
-50 30 -75 19 -49 93 -192 103 -200 3 -3 13 -18 22 -35 15 -29 13 -36 -59
-250 -40 -121 -74 -224 -75 -230 -2 -5 -6 -15 -9 -21 -4 -6 -9 -23 -12 -38 -3
-15 -10 -34 -17 -42 -6 -8 -9 -14 -6 -14 3 0 -8 -36 -24 -81 -16 -45 -26 -85
-23 -90 3 -5 0 -9 -6 -9 -6 0 -8 -4 -5 -10 3 -5 1 -10 -6 -10 -7 0 -10 -2 -7
-5 3 -3 -14 -62 -37 -130 -24 -69 -41 -125 -38 -125 3 0 1 -6 -4 -12 -9 -11
-50 -128 -57 -161 -3 -12 -5 -17 -22 -62 -4 -11 -8 -24 -10 -30 -3 -11 -98
-290 -107 -315 -7 -18 -41 -123 -42 -130 -5 -21 -30 -97 -35 -105 -3 -5 -12
-30 -19 -55 -7 -25 -17 -54 -22 -65 -6 -17 -18 -53 -24 -75 -1 -3 -4 -12 -8
-20 -8 -21 -79 -233 -82 -245 -1 -5 -5 -17 -8 -25 -7 -18 -38 -111 -41 -125
-2 -5 -6 -17 -9 -25 -3 -8 -20 -55 -37 -105 -29 -82 -37 -109 -39 -126 -1 -3
-72 -5 -159 -5 -177 1 -241 -6 -301 -32 -89 -40 -161 -134 -178 -230 -3 -20
-6 -606 -6 -1303 -1 -1326 -1 -1318 42 -1389 21 -36 93 -110 107 -110 6 0 17
-6 23 -14 10 -12 44 -23 106 -33 53 -9 395 -7 395 2 0 6 3 6 8 0 6 -9 96 -13
127 -5 6 1 12 1 15 0 14 -6 118 -5 136 1 12 4 25 5 28 2 9 -9 347 -10 372 -1
12 3 25 4 28 1 11 -11 246 -9 246 2 0 6 3 6 8 0 6 -9 96 -13 127 -5 6 1 12 1
15 0 14 -6 118 -5 136 1 12 4 25 5 28 1 11 -10 160 -8 168 3 5 7 8 7 8 0 0 -6
32 -9 83 -8 98 4 71 4 245 1 89 -2 142 1 142 7 0 6 3 6 8 0 4 -6 33 -10 67 -8
77 4 76 4 105 0 33 -4 132 19 173 39 73 38 152 143 161 216 3 18 5 33 6 33 4
0 1 2533 -3 2555 -16 93 -65 169 -140 219 -59 39 -135 56 -246 56 -70 -1 -81
1 -76 15 4 8 18 51 32 95 22 70 44 133 69 200 4 11 8 25 10 30 1 6 17 53 34
105 18 52 32 101 33 108 0 6 3 12 7 12 4 0 7 6 7 13 0 6 13 48 28 92 15 44 28
85 29 90 1 6 8 20 14 33 7 12 10 22 8 22 -3 0 6 29 19 65 14 36 22 65 19 65
-4 0 -1 6 5 14 7 8 13 22 15 32 4 21 73 227 86 259 7 17 51 148 55 165 1 3 4
12 8 20 3 8 9 28 14 45 l9 29 39 -64 c21 -36 50 -87 65 -115 49 -89 84 -150
89 -155 12 -10 31 -50 31 -64 0 -8 4 -16 8 -18 5 -1 30 -41 56 -88 27 -47 56
-99 66 -116 10 -17 24 -42 32 -55 7 -13 15 -26 18 -29 3 -3 13 -21 22 -40 10
-19 29 -55 44 -80 14 -25 36 -63 48 -85 11 -22 24 -42 27 -45 3 -3 19 -30 36
-60 94 -171 177 -315 191 -332 8 -10 12 -18 9 -18 -3 0 10 -25 28 -56 31 -52
33 -58 20 -78 -8 -11 -15 -26 -15 -34 0 -7 -9 -31 -19 -53 -11 -22 -23 -54
-27 -72 -4 -18 -9 -35 -10 -39 -1 -5 -3 -10 -4 -13 -1 -3 -3 -8 -4 -12 -1 -5
-5 -17 -9 -28 -6 -20 -12 -47 -23 -115 -3 -19 -8 -38 -9 -41 -16 -26 -24 -480
-10 -624 7 -83 12 -120 15 -120 1 0 3 -14 5 -31 5 -45 46 -197 58 -212 5 -6 6
-12 2 -12 -4 0 -3 -6 2 -12 6 -7 13 -26 17 -41 12 -52 137 -291 178 -342 5 -5
25 -32 46 -60 20 -27 46 -59 57 -71 11 -11 36 -39 56 -60 35 -37 115 -112 155
-144 52 -42 153 -110 163 -110 6 0 11 -3 11 -8 0 -4 9 -12 19 -17 40 -21 156
-79 161 -80 3 -1 16 -6 30 -12 48 -21 135 -53 155 -56 11 -2 27 -6 35 -10 30
-10 113 -30 139 -33 14 -1 26 -3 26 -4 0 -9 238 -22 400 -21 188 0 257 4 343
20 34 7 67 9 72 6 6 -3 10 -2 10 3 0 5 6 9 13 9 6 0 32 6 57 13 25 7 52 13 60
15 38 8 192 70 262 106 120 60 267 159 334 224 12 11 32 29 45 41 67 57 239
267 239 292 0 5 4 12 8 14 22 9 107 177 154 303 42 115 58 172 79 300 18 110
29 366 17 402 -4 12 -4 24 0 27 11 7 2 213 -13 296 -3 14 -7 41 -10 60 -3 19
-12 58 -20 85 -8 28 -16 61 -18 75 -5 24 -17 59 -39 105 -5 11 -5 29 -1 40 10
26 95 178 102 185 3 3 13 19 21 35 8 17 31 57 50 90 19 33 42 74 50 90 8 17
19 35 23 40 7 9 165 286 467 819 47 83 84 153 83 158 -2 4 4 5 12 2 8 -4 15
-10 15 -15 0 -5 0 -11 0 -14 0 -3 7 -21 15 -41 8 -20 15 -45 15 -55 0 -11 5
-19 11 -19 5 0 8 -4 4 -9 -3 -5 -1 -12 5 -16 5 -3 10 -16 10 -29 0 -12 3 -26
7 -30 4 -3 8 -12 9 -19 1 -7 14 -45 29 -85 14 -40 28 -81 30 -90 2 -9 18 -57
35 -107 17 -49 33 -97 35 -105 6 -22 46 -141 56 -165 7 -17 16 -45 26 -80 1
-5 39 -117 83 -248 44 -131 80 -242 80 -247 0 -4 -28 -7 -62 -6 -122 4 -218
-28 -286 -95 -28 -27 -62 -78 -67 -99 -1 -3 -5 -12 -8 -20 -20 -44 -22 -209
-21 -1370 2 -1036 4 -1273 15 -1307 19 -59 87 -150 126 -168 18 -9 35 -20 38
-25 15 -24 251 -47 301 -29 12 4 25 5 28 1 9 -9 107 -10 132 -1 12 4 25 5 28
2 9 -9 347 -10 372 -1 12 3 25 4 28 1 11 -11 246 -9 246 2 0 6 3 6 8 0 6 -9
96 -13 127 -5 6 1 12 1 15 0 14 -6 118 -5 136 1 12 4 25 5 28 1 11 -10 160 -8
168 3 5 7 8 7 8 0 0 -6 32 -9 83 -8 98 4 71 4 245 1 89 -2 142 1 142 7 0 6 3
6 8 0 6 -9 96 -13 127 -5 6 1 12 1 15 0 14 -6 118 -5 137 2 12 4 24 4 27 0 6
-10 79 -8 95 2 6 4 11 3 11 -1 0 -12 53 -10 62 2 5 6 8 6 8 -1 0 -16 84 -6
149 19 76 28 151 104 180 181 18 48 22 83 24 182 1 67 -1 120 -5 117 -5 -2 -4
6 0 19 4 13 6 91 5 173 -2 83 -3 159 -3 170 1 18 1 81 1 145 -1 60 -1 157 0
175 0 18 0 73 0 145 -1 14 0 122 2 242 1 119 -1 214 -5 211 -5 -2 -4 6 0 19 4
13 6 91 5 173 -2 83 -3 159 -3 170 1 18 1 81 1 145 -1 60 -1 157 0 175 1 28 1
116 0 140 -1 11 -1 67 0 124 1 101 -13 181 -35 211 -7 8 -17 26 -24 40 -17 34
-112 102 -165 118 -27 9 -110 15 -237 16 -217 3 -211 3 -208 13 0 5 -2 15 -5
23 -16 40 -69 197 -73 215 -3 16 -70 213 -75 223 -1 1 -2 5 -3 10 -4 16 -88
268 -96 287 -5 11 -43 124 -85 250 -41 127 -78 237 -82 245 -3 8 -7 20 -8 25
0 6 -4 17 -8 25 -5 14 -415 1233 -421 1255 -2 6 -6 18 -9 28 -28 72 -31 102
-12 117 8 7 15 18 15 26 0 7 6 19 13 26 12 12 90 150 89 155 -1 2 10 28 23 58
14 31 25 62 25 70 0 8 4 15 8 15 5 0 9 6 9 13 0 6 10 46 23 87 13 41 24 86 26
100 1 14 3 25 4 25 4 0 19 109 26 190 10 114 4 497 -9 575 -3 14 -8 45 -11 70
-9 58 -48 198 -76 274 -25 70 -102 227 -130 266 -11 16 -20 33 -20 39 0 6 -4
11 -10 11 -5 0 -10 7 -10 15 0 8 -4 15 -8 15 -5 0 -15 12 -23 27 -25 48 -133
169 -230 258 -54 50 -212 165 -226 165 -6 0 -16 6 -22 14 -37 44 -340 166
-476 191 -11 2 -20 4 -20 5 0 3 -30 7 -86 14 -30 4 -67 9 -84 12 -72 14 -542
6 -625 -11 -13 -2 -42 -7 -63 -10 -22 -4 -50 -10 -63 -15 -13 -5 -24 -8 -24
-6 0 6 -140 -40 -220 -72 -87 -35 -206 -97 -227 -118 -8 -8 -19 -14 -24 -14
-9 0 -52 -30 -127 -87 -66 -50 -156 -135 -217 -204 -41 -46 -145 -184 -145
-192 0 -3 -12 -23 -26 -44 -51 -75 -157 -321 -169 -393 -8 -44 -10 -55 -17
-65 -3 -5 -9 -34 -13 -64 -4 -30 -8 -63 -11 -74 -13 -68 -17 -160 -16 -374 0
-133 3 -246 6 -252 3 -5 8 -33 11 -63 3 -29 14 -89 25 -133 11 -44 23 -90 25
-103 8 -36 81 -214 105 -257 l21 -37 -27 -52 c-15 -28 -29 -53 -33 -56 -3 -3
-15 -23 -26 -45 -11 -22 -22 -42 -25 -45 -3 -3 -13 -21 -24 -40 -28 -52 -64
-117 -106 -190 -21 -36 -47 -81 -58 -101 -11 -20 -26 -47 -34 -60 -7 -13 -17
-27 -21 -30 -5 -3 -9 -10 -8 -15 0 -5 -27 -55 -60 -111 -32 -56 -59 -106 -59
-112 0 -6 -4 -11 -9 -11 -5 0 -11 -8 -15 -17 -3 -10 -13 -31 -23 -48 -66 -111
-123 -214 -123 -224 0 -6 -3 -11 -8 -11 -4 0 -23 -30 -42 -67 -19 -38 -37 -70
-40 -73 -6 -5 -33 -52 -98 -170 -14 -25 -46 -81 -71 -125 -25 -44 -53 -92 -60
-107 -16 -32 -41 -37 -41 -9 0 11 -4 21 -9 23 -8 3 -53 80 -124 208 -16 30
-33 60 -37 65 -4 6 -21 35 -38 65 -35 65 -58 107 -100 176 -37 63 -91 160
-109 196 -8 15 -18 30 -24 33 -5 4 -9 15 -9 25 0 10 -4 20 -8 22 -5 2 -20 23
-34 48 -14 25 -35 63 -48 85 -13 22 -36 65 -53 95 -17 30 -38 67 -49 82 -10
14 -18 29 -18 32 0 4 -10 23 -23 44 -13 20 -37 62 -54 92 -16 30 -84 150 -150
265 -66 116 -123 218 -126 228 -4 10 1 34 12 55 10 20 19 40 20 45 0 4 7 23
15 42 9 20 18 51 22 70 3 19 11 35 17 35 6 0 8 3 5 6 -3 3 0 29 7 57 8 29 16
68 19 87 3 19 8 48 11 63 3 16 7 50 9 77 2 26 7 53 10 59 4 6 2 11 -4 11 -6 0
-8 10 -4 27 10 40 11 195 2 216 -5 9 -5 17 -1 17 5 0 7 21 7 48 -1 26 -2 47
-3 47 -1 0 -3 37 -5 81 -2 45 -6 94 -10 110 -3 16 -8 46 -11 66 -2 21 -14 69
-24 108 -11 38 -17 70 -14 70 3 0 -2 11 -11 25 -9 14 -14 25 -12 25 3 0 -2 17
-11 38 -8 20 -20 48 -26 62 -6 14 -11 27 -12 30 -12 37 -77 156 -127 230 -69
103 -80 118 -148 193 -78 86 -212 207 -229 207 -5 0 -11 4 -13 9 -5 13 -165
113 -238 148 -98 47 -198 86 -249 98 -9 3 -42 11 -75 20 -32 9 -73 18 -90 20
-17 2 -42 6 -56 9 -54 13 -430 28 -468 19z"/>
</g>
</svg>
